<?xml version="1.0" encoding="utf-8"?>
<!-- Generator: Adobe Illustrator 22.1.0, SVG Export Plug-In . SVG Version: 6.00 Build 0)  -->
<svg version="1.1" id="Layer_2" xmlns="http://www.w3.org/2000/svg" xmlns:xlink="http://www.w3.org/1999/xlink" x="0px" y="0px"
	 viewBox="0 0 792 612" style="enable-background:new 0 0 792 612;" xml:space="preserve">
<style type="text/css">
	.st0{fill:none;stroke:#ED2290;stroke-width:2;stroke-miterlimit:10;}
	.st1{fill:none;stroke:#9C3E97;stroke-width:2;stroke-miterlimit:10;stroke-dasharray:12;}
	.st2{fill:none;stroke:#F58E97;stroke-width:2;stroke-miterlimit:10;}
	.st3{fill:none;stroke:#9C3E97;stroke-width:2;stroke-miterlimit:10;}
	.st4{fill:none;stroke:#99BE97;stroke-width:2;stroke-miterlimit:10;stroke-dasharray:12;}
	.st5{fill:none;stroke:#23A297;stroke-width:2;stroke-miterlimit:10;stroke-dasharray:12;}
	.st6{fill:none;}
	.st7{fill:#BC73B0;}
	.st8{font-family:'GothamBlack';}
	.st9{font-size:60px;}
</style>
<path class="st0" d="M268.4,103.6c-23.2,4.5-143.7,31.3-183.9,142.3c-34.8,96.1,5.2,214.8,92.5,261.8
	c117.5,63.3,274.3-28.4,314.8-146.5c24.9-72.4,13.6-176.8-57.1-230.6C372.6,83.3,295.4,98.3,268.4,103.6z"/>
<path class="st1" d="M160.3,231.1c-5.4,1-33.5,7.3-42.8,33.1c-8.1,22.4,1.2,50,21.5,61c27.4,14.7,63.9-6.6,73.3-34.1
	c5.8-16.9,3.2-41.2-13.3-53.7C184.6,226.4,166.6,229.9,160.3,231.1z"/>
<path class="st2" d="M375.1,213.8c-5.4,1-33.5,7.3-42.8,33.1c-8.1,22.4,1.2,50,21.5,61c27.4,14.7,63.9-6.6,73.3-34.1
	c5.8-16.9,3.2-41.2-13.3-53.7C399.4,209.1,381.4,212.6,375.1,213.8z"/>
<path class="st3" d="M260.5,300.6c-2.7,0.5-16.7,3.6-21.4,16.6c-4.1,11.2,0.6,25,10.8,30.5c13.7,7.4,31.9-3.3,36.7-17.1
	c2.9-8.4,1.6-20.6-6.7-26.9C272.6,298.3,263.6,300,260.5,300.6z"/>
<path class="st3" d="M165.5,379.9c5.5,22.6,26.5,37.4,47.8,35.3c24-2.4,42.9-25.7,39.5-51.9c-4.6,28.3,15.9,53.9,41.6,56.1
	c22.7,2,45.1-14.7,49.9-39.5"/>
<polygon class="st4" points="355,74.5 606.4,25.6 561.7,279.8 "/>
<polygon class="st5" points="54.9,33.9 164.9,143.9 21.7,207.7 "/>
<rect x="452.4" y="476.6" class="st6" width="384.7" height="104.2"/>
<text transform="matrix(1 0 0 1 452.4229 520.4004)" class="st7 st8 st9">muffy</text>
</svg>
